<svg width="324" height="451" fill="none" xmlns="http://www.w3.org/2000/svg"><g opacity=".07" clip-path="url('#clip0_406_1916')" fill-rule="evenodd" clip-rule="evenodd" fill="#fff"><path d="M741.329 554.309s-10.164-23.86-38.052-54.883c-12.67-14.104-29.003-29.62-49.762-45.192-13.199-9.899-28.164-19.82-45.126-29.411-21.289-12.04-45.656-23.683-73.776-33.671-92.626-33.395-202.214-79.857-297.267-141.372-64.373-41.661-122.048-90.208-163.433-146.029-5.397-7.283-9.337-13.84-12.835-21.167-3.157-6.578-5.96-13.773-9.182-22.712a2.42 2.42 0 0 1 1.413-3.123 2.419 2.419 0 0 1 3.111 1.423c3.389 8.664 6.302 15.638 9.547 21.995 3.531 6.909 7.45 13.078 12.791 19.909 42.158 54.033 100.295 100.373 164.713 140.003 95.473 58.723 204.829 102.558 297.211 133.669 29.422 10.065 55.115 21.609 77.264 34.212 17.801 10.12 33.362 20.836 46.903 31.662 21.311 17.073 37.699 34.312 50.104 49.961 27.535 34.741 35.679 61.36 35.679 61.36a4.953 4.953 0 0 1-2.969 6.334 4.958 4.958 0 0 1-6.334-2.968Z"/><path d="M97.518 132.687s-2.24-1.081-5.87-3.134c-1.667-.949-3.61-2.053-5.706-3.41-4.768-3.079-10.374-7.163-16.885-10.462-6.456-3.267-13.498-6.104-20.803-7.262a1.523 1.523 0 0 1 .254-3.035c9.921.11 19.876 2.936 28.561 6.5 3.454 1.424 6.687 2.935 9.59 4.525 2.218 1.214 4.293 2.394 6.037 3.653 1.81 1.313 3.278 2.637 4.492 3.807 2.748 2.627 4.094 4.393 4.094 4.393a2.902 2.902 0 0 1 .331 4.094 2.903 2.903 0 0 1-4.095.331ZM169.254 199.839s-2.075.53-5.728.861c-1.622.143-3.531.254-5.683.143-2.075-.121-4.337-.507-6.732-.971-3.134-.596-6.456-1.468-9.888-2.56-8.587-2.726-17.614-6.875-24.92-13.21a1.518 1.518 0 0 1-.309-2.13 1.529 1.529 0 0 1 2.13-.32c6.037 3.818 12.901 6.103 19.611 7.67 6.799 1.578 13.42 1.943 18.816 2.538 2.373.265 4.47.629 6.269.938 3.94.673 6.257 1.236 6.257 1.236a2.898 2.898 0 0 1 2.991 2.804c.055 1.6-1.214 2.946-2.814 3.001ZM126.134 158.975s-.783-1.678-1.688-4.713c-.409-1.357-.85-2.946-1.126-4.789-.265-1.777-.331-3.752-.386-5.86-.066-2.781.033-5.761.243-8.829.551-8.453 2.008-17.36 5.208-24.103a1.538 1.538 0 0 1 1.965-.894 1.541 1.541 0 0 1 .894 1.965c-1.126 4.083-1.435 8.795-1.402 13.673.034 5.419.674 10.904 1.292 15.859.298 2.439.695 4.713.871 6.777.111 1.434.111 2.736.1 3.917-.033 3.719-.254 5.938-.254 5.938a2.913 2.913 0 0 1-2.329 3.387c-1.578.287-3.101-.761-3.388-2.328ZM297.032 284.688s-6.203.573-16.245 1.456c-4.68.408-10.165.905-16.257 1.357-14.071 1.06-31.287 2.207-48.602 5.11-18.386 3.09-36.893 7.714-51.891 15.02a1.53 1.53 0 0 1-2.054-.64 1.53 1.53 0 0 1 .641-2.053c18.485-10.451 42.764-17.161 65.631-21.387 8.531-1.568 16.852-2.825 24.61-3.719 5.904-.674 11.456-1.237 16.521-1.48 5.209-.253 9.877-.231 13.828-.165 8.664.154 13.862.696 13.862.696a2.89 2.89 0 0 1 2.88 2.924 2.906 2.906 0 0 1-2.924 2.881Z"/><path d="M213.388 326.116c-1.644-7.085.155-15.428 2.969-22.988a74.053 74.053 0 0 1 3.984-8.851c.684-1.28 1.335-2.505 2.085-3.565a23.696 23.696 0 0 1 2.384-2.814c2.472-2.538 4.216-3.752 4.216-3.752a2.876 2.876 0 0 1 4.051-.419 2.876 2.876 0 0 1 .419 4.05s-.574 1.578-1.832 4.161c-.574 1.158-1.203 2.527-2.086 3.972-1.302 2.119-3.068 4.349-4.68 6.876-2.152 3.399-4.325 7.041-5.904 10.882-1.666 4.05-2.825 8.122-2.681 12.062a1.484 1.484 0 0 1-1.269 1.655 1.477 1.477 0 0 1-1.656-1.269ZM288.877 387.531c17.139-16.3 41.859-27.546 65.808-35.116a318.01 318.01 0 0 1 30.459-7.957c4.658-.972 9.105-1.832 13.265-2.428a177.568 177.568 0 0 1 11.919-1.303c11.103-.861 18.033-.65 18.033-.65a2.875 2.875 0 0 1 3.035 2.703 2.878 2.878 0 0 1-2.704 3.046s-8.144 1.181-20.825 3.487c-2.185.398-4.502.806-6.941 1.226-2.218.364-4.536.728-6.942 1.114-15.098 2.406-33.406 5.916-51.395 11.676-19.015 6.092-37.677 14.469-51.737 26.387a1.471 1.471 0 0 1-2.086-.11 1.477 1.477 0 0 1 .111-2.075ZM218.618 124.775c-5.264 12.062-5.937 27.932-4.723 43.868 1.07 14.149 3.829 28.286 6.367 39.885.398 1.832.784 3.586 1.115 5.286.375 1.854.696 3.631.994 5.308 1.688 9.734 2.847 15.98 2.847 15.98a2.872 2.872 0 0 1-1.91 3.587 2.871 2.871 0 0 1-3.587-1.909s-2.582-6.026-5.485-15.738a106.672 106.672 0 0 1-1.434-5.352 108.949 108.949 0 0 1-1.126-5.419c-2.24-12.018-4.028-26.751-4.16-41.352-.144-16.731 2.008-33.251 8.442-45.424a1.484 1.484 0 0 1 1.976-.684 1.474 1.474 0 0 1 .684 1.964ZM46.856.597c9.866-.673 17.492 3.045 23.088 9.336 3.575 4.006 6.202 9.171 8 14.965 1.744 5.628 2.627 11.897 2.716 18.353.187 14.347-3.576 29.62-9.89 41.308l-1.412 2.693-2.957-.75c-15.473-4.25-27.016-21.742-32.126-40.128-3.763-13.563-4.117-27.425-.552-36.077 2.516-6.114 6.853-9.833 13.133-9.7Zm18.452 77.495C53.323 73.5 44.582 59.254 39.925 44.686 36.02 32.48 34.97 19.91 37.873 11.908c1.622-4.447 4.48-7.405 8.983-7.504 6.643.475 11.632 3.211 15.461 7.25 3.764 3.973 6.17 9.36 7.715 15.474 1.27 5.032 1.876 10.539 1.953 16.234.133 11.863-2.119 24.477-6.677 34.73ZM1.715 91.07c2.074-7.89 8.11-11.974 15.88-13.122 4.183-.618 8.906-.199 13.784 1.026 4.624 1.16 9.392 3.123 13.95 5.739 10.13 5.816 19.203 14.832 24.19 24.963l1.866 3.665-3.763 1.632c-11.29 4.603-34.113 7.075-49.861 2.683-8.134-2.263-14.402-6.324-16.73-12.471-1.458-3.819-1.49-8.487.684-14.115Zm58.7 18.441c-10.937 3.708-28.506 5.728-41.308 2.836C8.623 109.963 1.45 104.125 5.301 92.35c2.053-4.47 5.761-6.555 10.209-7.228 4.06-.619 8.718.165 13.618 1.754 3.918 1.258 7.935 3.09 11.875 5.363 7.493 4.315 14.644 10.242 19.412 17.272ZM51.069 158.919l2.196-.508c8.012-2.196 17.26-3.774 26.685-3.631 6.092.099 12.228.949 18.1 2.616 14.412 4.116 27.214 13.221 34.387 29.389l1.457 3.179-3.211 1.39c-11.29 4.69-29.874 8.575-46.693 3.255-13.111-4.149-25.262-13.773-31.94-33.02l-.981-2.67Zm5.706 4.138c8.542-1.324 18.242-1.489 27.81-.253 6.5.839 12.968 2.295 18.949 4.955 8.388 3.73 15.848 9.635 21.024 18.728-10.242 3.951-25.162 6.832-39.035 2.958-11.378-3.189-21.983-10.97-28.748-26.388ZM102.172 307.918l1.468-1.258a75.97 75.97 0 0 1 22.59-14.623c5.552-2.328 11.445-3.972 17.415-4.899 15.241-2.373 31.023-.067 44.222 7.537l3.354 1.876-2.206 3.134c-5.916 8.112-21.786 23.408-40.69 27.381-14.093 2.957-29.908-.133-44.431-17.194l-1.722-1.954Zm6.456 1.424c6.004-4.393 12.956-7.792 20.273-10.352a88.77 88.77 0 0 1 15.947-3.984c12.272-1.865 24.93-1.004 36.055 3.951-6.39 7.847-18.927 19.181-33.781 22.812-12.008 2.935-25.482.717-38.494-12.427Z"/><path d="M181.294 367.379v-2.041c-.154-3.002.232-14.303 3.918-26.354 1.7-5.584 4.227-11.268 7.45-16.378 5.716-9.071 13.85-16.223 24.786-18.055l2.318-.43 1.258 2.009c6.887 11.488 7.284 28.583-.872 41.826-6.456 10.484-18.176 18.662-36.176 19.28l-2.682.143Zm35.095-55.401c4.966 9.425 5.055 22.591-.938 33.208-5.043 8.972-14.391 16.101-28.738 17.955.662-4.293 2.572-12.724 5.838-21.697 1.799-4.933 3.929-10.075 6.765-14.699 4.105-6.71 9.524-12.471 17.073-14.767ZM234.077 418.42l1.611-1.931c5.938-7.759 12.714-16.919 20.572-24.887 5.297-5.374 11.113-10.153 17.083-13.917 11.732-7.394 24.335-10.638 36.905-5.97l3.597 1.28-1.644 3.454c-5.032 10.076-17.04 35.327-36.695 45.193-10.65 5.342-23.518 6.39-38.714-1.81l-2.715-1.412Zm7.394-.619c6.004-6.588 12.945-13.849 20.207-20.626 5.121-4.778 10.375-9.347 15.871-12.901 8.519-5.518 17.491-8.829 26.717-7.052-5.12 11.124-15.03 31.166-31.11 39.906-8.685 4.724-19.181 6.015-31.685.673ZM275.985 298.59l2.14.32c7.317.806 17.68 3.797 28.54 8.686a143.12 143.12 0 0 1 17.415 9.381c15.814 10.009 29.61 23.186 34.388 36.176l1.545 4.061-4.315.596c-22.789 2.869-40.767-1.534-53.834-9.667-18.342-11.434-27.093-30.206-26.023-46.771l.144-2.782Zm3.675 5.927c7.747 1.932 18.099 6.6 28.76 12.482 6.478 3.564 13.111 7.537 19.203 11.94 9.524 6.876 17.867 14.58 22.414 22.625-18.828 2.064-33.992-1.446-45.359-8.079-15.936-9.292-24.422-24.632-25.018-38.968ZM145.403 64.396c7.527 1.887 11.511 7.681 12.648 15.318.596 3.973.221 8.498-.916 13.233-1.06 4.392-2.869 8.972-5.319 13.431-5.143 9.38-13.112 18.22-22.481 24.345l-3.102 2.086-2.185-3.024c-8.266-12.04-9.292-26.873-6.102-39.476 2.24-8.796 6.455-16.454 11.444-21.222 4.966-4.745 10.66-6.732 16.013-4.69Zm-17.304 57.609c-5.607-9.403-6.379-20.616-4.414-30.394 1.887-9.392 6.212-17.547 11.543-21.542 2.814-2.108 5.871-3.057 8.928-2.086 4.194 1.92 6.114 5.452 6.732 9.745.552 3.851-.187 8.277-1.677 13.022-1.181 3.73-2.881 7.604-5 11.456-3.962 7.207-9.425 14.336-16.112 19.799ZM224.674 52.983l1.06.751c10.109 6.578 16.069 16.366 18.408 27.26 1.534 7.14 1.413 14.766.066 22.149-3.597 19.71-16.277 37.721-31.916 42.996l-3.045 1.07-1.16-3.013c-5.562-15.097-8.277-31.85-6.588-47.477 1.788-16.432 8.376-31.618 21.509-42.334l1.666-1.402Zm-.871 5.817c7.482 6.224 11.323 14.645 12.823 23.617 1.06 6.29.95 12.879-.187 19.324-2.781 15.804-11.477 30.813-23.385 36.838-4.867-13.232-7.372-27.7-6.302-41.374 1.137-14.568 6.302-28.219 17.051-38.405ZM252.232 138.568l.53 1.512c3.41 8.156 4.558 15.208 3.818 21.189-.695 5.595-3.046 10.264-6.368 13.994-7.273 8.189-19.865 11.897-33.594 11.643h-3.321v-3.322c.32-14.6 3.774-24.114 8.685-30.471 7.725-10.02 19.07-12.316 27.932-14.037l2.318-.508Zm-3.918 4.823c1.611 6.522 1.633 12.018.717 16.675-.783 3.973-2.383 7.273-4.745 9.977-5.386 6.18-14.303 9.348-24.356 10.065.198-11.025 2.604-18.585 6.301-23.871 5.827-8.343 14.656-11.003 22.083-12.846ZM291.996 227l1.468-.331c9.987-2.77 19.192-3.057 27.524-.894 6.103 1.59 11.72 4.525 16.786 8.586 10.23 8.2 18.198 21.256 23.882 38.295l1.754 5.033-5.308-.541c-16.83-1.987-37.478-4.139-51.075-15.351-8.299-6.843-14.137-16.973-14.876-32.49l-.155-2.307Zm4.194 4.437c8.365-1.291 15.881-.607 22.701 1.589 5.043 1.622 9.668 4.127 13.928 7.527 8.277 6.61 15.174 16.487 20.504 29.388-14.744-1.247-31.474-3.111-43.15-12.095-7.229-5.54-12.427-13.839-13.983-26.409Z"/></g><defs><clipPath id="clip0_406_1916"><path fill="#fff" transform="matrix(-1 0 0 1 324 .519)" d="M0 0h324v450.481H0z"/></clipPath></defs></svg>