<svg width="221" height="48" fill="none" xmlns="http://www.w3.org/2000/svg"><path d="m64.365 7.566 3.876 10.297 3.865-10.297h3.018V21h-2.325v-4.429l.23-5.923L69.062 21h-1.67l-3.958-10.343.23 5.914V21H61.34V7.566h3.026ZM82.245 21h-2.326V7.566h2.326V21Zm11.78-3.46c0-.59-.21-1.046-.627-1.365-.412-.32-1.16-.643-2.242-.97-1.083-.325-1.944-.688-2.584-1.088-1.224-.769-1.836-1.771-1.836-3.008 0-1.082.44-1.974 1.32-2.675.885-.702 2.032-1.052 3.441-1.052.935 0 1.768.172 2.5.516a4.093 4.093 0 0 1 1.726 1.477c.418.633.627 1.338.627 2.113h-2.325c0-.702-.221-1.25-.664-1.643-.437-.4-1.064-.6-1.883-.6-.762 0-1.356.163-1.78.49-.418.325-.628.78-.628 1.365 0 .492.228.904.683 1.236.455.326 1.206.646 2.251.96 1.046.307 1.886.661 2.52 1.06.633.395 1.097.85 1.392 1.367.296.51.443 1.11.443 1.799 0 1.12-.43 2.011-1.291 2.675-.855.659-2.018.988-3.488.988-.972 0-1.867-.179-2.685-.536-.812-.363-1.445-.86-1.9-1.494-.45-.634-.674-1.372-.674-2.215h2.334c0 .763.252 1.354.757 1.772.504.418 1.227.627 2.168.627.812 0 1.42-.163 1.827-.489.412-.332.618-.769.618-1.31Zm15.979-8.092h-4.189V21h-2.316V9.448h-4.152V7.566h10.657v1.882Zm19.999 9.808c-.486.634-1.16 1.114-2.021 1.44-.861.326-1.839.489-2.934.489-1.125 0-2.122-.256-2.989-.766s-1.538-1.24-2.012-2.187c-.467-.953-.71-2.064-.728-3.33V13.85c0-2.03.486-3.614 1.457-4.752.972-1.144 2.329-1.716 4.069-1.716 1.495 0 2.682.369 3.562 1.107.879.738 1.408 1.802 1.587 3.192h-2.288c-.259-1.617-1.197-2.426-2.815-2.426-1.045 0-1.842.378-2.389 1.134-.542.751-.821 1.855-.84 3.313v1.033c0 1.452.305 2.58.914 3.386.615.8 1.467 1.2 2.555 1.2 1.194 0 2.042-.27 2.547-.812v-2.63h-2.768v-1.771h5.093v5.148Zm11.974-1.384h-5.204L135.685 21h-2.427l5.075-13.434h2.094L145.511 21h-2.436l-1.098-3.128Zm-4.549-1.882h3.894l-1.947-5.573-1.947 5.573Zm16.44-.166h-2.602V21h-2.334V7.566h4.724c1.55 0 2.746.348 3.589 1.043s1.264 1.7 1.264 3.017c0 .898-.218 1.651-.655 2.26-.43.603-1.033 1.068-1.808 1.394l3.017 5.6V21h-2.501l-2.694-5.176Zm-2.602-1.873h2.399c.788 0 1.403-.197 1.846-.59.442-.4.664-.945.664-1.634 0-.72-.206-1.276-.618-1.67-.406-.393-1.015-.596-1.827-.609h-2.464v4.503ZM162.613 21V7.566h3.968c1.187 0 2.238.265 3.155.794a5.405 5.405 0 0 1 2.141 2.251c.504.972.756 2.085.756 3.34v.673c0 1.274-.255 2.393-.766 3.359a5.307 5.307 0 0 1-2.168 2.233c-.935.523-2.008.784-3.22.784h-3.866Zm2.334-11.552v9.688h1.523c1.224 0 2.162-.381 2.814-1.144.658-.769.993-1.87 1.006-3.303v-.747c0-1.458-.317-2.571-.951-3.34-.633-.77-1.553-1.154-2.758-1.154h-1.634Zm19.753 5.555h-5.518v4.133h6.449V21h-8.783V7.566h8.719v1.882h-6.385v3.71h5.518v1.845ZM200.078 21h-2.334l-5.988-9.531V21h-2.334V7.566h2.334l6.006 9.568V7.566h2.316V21Zm11.67-3.46c0-.59-.209-1.046-.627-1.365-.413-.32-1.16-.643-2.242-.97-1.083-.325-1.944-.688-2.584-1.088-1.224-.769-1.836-1.771-1.836-3.008 0-1.082.44-1.974 1.319-2.675.886-.702 2.033-1.052 3.442-1.052.935 0 1.768.172 2.5.516a4.098 4.098 0 0 1 1.726 1.477c.418.633.627 1.338.627 2.113h-2.325c0-.702-.221-1.25-.664-1.643-.437-.4-1.064-.6-1.882-.6-.763 0-1.357.163-1.781.49-.418.325-.628.78-.628 1.365 0 .492.228.904.683 1.236.455.326 1.206.646 2.251.96 1.046.307 1.886.661 2.519 1.06.634.395 1.098.85 1.393 1.367.296.51.443 1.11.443 1.799 0 1.12-.43 2.011-1.291 2.675-.855.659-2.018.988-3.488.988-.972 0-1.867-.179-2.685-.536-.812-.363-1.445-.86-1.901-1.494-.449-.634-.673-1.372-.673-2.215h2.334c0 .763.252 1.354.757 1.772.504.418 1.227.627 2.168.627.812 0 1.421-.163 1.827-.489.412-.332.618-.769.618-1.31ZM63.277 28.205l1.534 7.136 4.02-7.136h1.486l-1.522 8.761H67.67l.602-3.466.715-3.526-3.97 6.992h-.867l-1.565-7.13-.541 3.779-.584 3.351h-1.131l1.522-8.761h1.426Zm11.634 8.117c-.509.526-1.157.78-1.943.764-.622-.016-1.083-.238-1.384-.667-.297-.43-.407-1.015-.331-1.758l.698-4.206h1.09l-.705 4.224c-.02.177-.024.35-.012.518.02.289.106.515.259.68.152.164.365.253.638.265.778.024 1.38-.291 1.805-.945l.818-4.742h1.09l-1.132 6.511h-1.029l.138-.644Zm6.677-1.119c.06-.45-.187-.766-.74-.95l-1.132-.332c-.955-.329-1.416-.874-1.384-1.636.028-.574.289-1.043.782-1.408.498-.37 1.081-.55 1.751-.542.658.008 1.192.2 1.601.578.413.373.612.86.596 1.462l-1.083-.006c.008-.325-.095-.59-.307-.794-.213-.205-.496-.311-.849-.32a1.585 1.585 0 0 0-.974.277c-.253.181-.4.418-.44.71-.052.378.179.652.692.825l.548.15c.746.193 1.275.444 1.588.752.313.31.458.692.434 1.15a1.824 1.824 0 0 1-.398 1.059c-.24.3-.561.531-.962.692a3.252 3.252 0 0 1-1.282.216c-.69-.008-1.26-.208-1.709-.601-.45-.397-.666-.907-.65-1.529l1.09.006c0 .365.116.658.348.879.233.22.552.33.957.33.397.009.74-.073 1.03-.246.288-.176.452-.417.493-.722Zm5.13 1.883c-.811-.016-1.445-.314-1.902-.896-.458-.582-.65-1.326-.578-2.233l.03-.258a4.359 4.359 0 0 1 .572-1.77c.317-.533.702-.934 1.155-1.203a2.674 2.674 0 0 1 1.468-.391c.67.016 1.196.239 1.577.668.38.43.59 1.01.626 1.745a5.1 5.1 0 0 1-.025.782l-.066.5h-4.254c-.072.59.024 1.09.289 1.504.269.413.668.628 1.197.644.642.016 1.236-.273 1.781-.867l.626.53a2.883 2.883 0 0 1-1.059.926c-.429.221-.908.327-1.438.32Zm.691-5.842c-.45-.012-.842.14-1.18.457-.332.317-.597.788-.793 1.414l3.165.006.024-.096c.064-.506-.018-.925-.247-1.258-.225-.337-.548-.511-.969-.523Zm7.14 5.078c-.51.526-1.158.78-1.944.764-.622-.016-1.083-.238-1.384-.667-.297-.43-.407-1.015-.331-1.758l.698-4.206h1.09l-.705 4.224c-.02.177-.024.35-.012.518.02.289.106.515.259.68.152.164.365.253.638.265.778.024 1.38-.291 1.805-.945l.818-4.742h1.09l-1.132 6.511H94.41l.139-.644Zm4.792-5.873-.138.728c.545-.577 1.205-.858 1.979-.842.414.008.763.102 1.047.283.289.18.488.435.596.764.61-.714 1.33-1.063 2.16-1.047.65.016 1.13.235 1.439.656.308.421.423.987.343 1.697l-.717 4.278h-1.083l.71-4.29c.024-.209.024-.4 0-.572-.076-.545-.433-.824-1.071-.836a1.649 1.649 0 0 0-1.083.373 1.707 1.707 0 0 0-.62.999l-.74 4.326h-1.095l.722-4.284c.052-.446-.016-.789-.204-1.03-.185-.24-.474-.364-.867-.372-.678-.016-1.217.293-1.618.926l-.825 4.76h-1.089l1.131-6.51 1.023-.007Zm11.902 4.207c.06-.747.506-1.413 1.336-1.998l.686-.458-.259-.463c-.289-.53-.417-1.02-.385-1.474.048-.662.289-1.194.722-1.595.433-.405.979-.6 1.637-.583.541.008.989.184 1.342.53.353.34.513.765.481 1.275-.036.69-.463 1.322-1.282 1.895l-.884.59 1.498 2.292a4.188 4.188 0 0 0 .686-1.745h.969c-.108 1.023-.471 1.88-1.089 2.57l.945 1.474h-1.216l-.439-.68c-.698.546-1.466.81-2.305.794-.758-.008-1.368-.236-1.829-.685-.461-.454-.666-1.034-.614-1.74Zm2.479 1.522c.538.012 1.107-.215 1.709-.68l-1.631-2.551-.258.18c-.718.497-1.115 1.009-1.192 1.534-.06.434.036.793.289 1.078.253.284.614.43 1.083.439Zm-.03-5.957c-.032.337.066.708.295 1.113l.163.283.92-.62c.429-.321.666-.692.71-1.113a.767.767 0 0 0-.21-.638c-.165-.169-.384-.253-.656-.253-.333 0-.612.123-.837.367-.224.24-.353.528-.385.86Zm8.244 6.745 1.522-8.761 2.569.006c.895 0 1.565.2 2.01.602.445.4.64.96.584 1.678-.072.839-.6 1.47-1.583 1.896.393.152.686.413.879.782.196.37.277.776.241 1.222-.061.79-.378 1.418-.951 1.883-.574.461-1.316.692-2.227.692h-3.044Zm1.841-4.098-.548 3.153 1.787.006c.546 0 1.003-.146 1.372-.439.369-.293.584-.688.644-1.185.056-.474-.026-.843-.246-1.108-.221-.264-.568-.405-1.041-.42l-1.968-.007Zm.162-.926 1.631.006c.51 0 .939-.13 1.288-.392.353-.26.559-.62.62-1.076.052-.426-.033-.747-.253-.963-.217-.217-.578-.335-1.083-.355l-1.721-.006-.482 2.786Zm9.077-1.607c.546.008 1.013.156 1.402.445.39.29.676.688.861 1.198a3.65 3.65 0 0 1 .192 1.66l-.012.133a4.398 4.398 0 0 1-.565 1.72c-.301.51-.69.907-1.168 1.192-.477.285-1 .42-1.57.403-.542-.008-1.009-.156-1.402-.445a2.486 2.486 0 0 1-.855-1.18 3.808 3.808 0 0 1-.192-1.642c.06-.674.243-1.28.547-1.817.305-.538.696-.953 1.174-1.246a2.813 2.813 0 0 1 1.588-.421Zm-2.214 3.49a3.707 3.707 0 0 0 0 .788c.04.474.181.85.421 1.132.245.28.57.427.975.439.361.012.694-.076.999-.265.305-.192.562-.481.77-.866.209-.386.343-.813.403-1.282.032-.37.038-.68.018-.933-.048-.485-.194-.868-.439-1.15-.245-.28-.57-.428-.975-.444-.561-.012-1.039.208-1.432.662-.393.453-.636 1.047-.728 1.78l-.012.14Zm8.481-4.946-.277 1.576h1.186l-.151.86h-1.179l-.68 4.05c-.012.105-.014.201-.006.29.028.312.199.469.512.469.132 0 .308-.02.529-.06l-.084.908a2.967 2.967 0 0 1-.794.108c-.434-.008-.759-.166-.975-.475-.217-.313-.301-.732-.253-1.258l.662-4.031h-1.149l.15-.86h1.149l.277-1.577h1.083Zm5.202 8.087a1.462 1.462 0 0 1-.042-.343l.018-.343c-.598.554-1.232.822-1.901.806-.574-.008-1.041-.188-1.402-.541-.357-.357-.52-.802-.488-1.336.04-.69.341-1.228.903-1.613.565-.389 1.307-.583 2.226-.583l1.137.006.073-.518c.04-.389-.037-.696-.229-.92-.189-.229-.473-.347-.855-.355a1.676 1.676 0 0 0-.992.276c-.285.189-.46.44-.524.753l-1.095.006c.036-.382.185-.719.445-1.011a2.552 2.552 0 0 1 1.005-.686 3.215 3.215 0 0 1 1.27-.235c.678.016 1.205.223 1.582.62.377.393.536.916.476 1.57l-.53 3.226-.03.463c-.008.22.016.44.072.656l-.012.102h-1.107Zm-1.709-.842c.349.008.678-.075.987-.247a2.52 2.52 0 0 0 .806-.728l.235-1.342-.824-.006c-.686 0-1.212.108-1.577.325-.365.217-.572.523-.62.92-.036.306.034.56.211.765.18.2.441.305.782.313Zm6.58-5.675-.156.825c.585-.642 1.251-.955 1.997-.939.614.016 1.067.229 1.36.638.293.409.401.985.325 1.727l-.71 4.266h-1.089l.716-4.284c.024-.197.026-.38.006-.548-.068-.561-.399-.848-.993-.86-.654-.012-1.227.337-1.721 1.047l-.806 4.645h-1.089l1.131-6.51 1.029-.007Zm5.798 6.517h-1.084l1.132-6.51h1.083l-1.131 6.51Zm.896-8.887a.58.58 0 0 1 .457.168c.125.116.187.27.187.463a.645.645 0 0 1-.644.656.6.6 0 0 1-.463-.162.587.587 0 0 1-.175-.457.68.68 0 0 1 .181-.47.636.636 0 0 1 .457-.198Zm3.758 8.105c.389.008.74-.104 1.053-.337.313-.237.517-.546.614-.927l1.029-.006c-.061.41-.225.782-.494 1.12-.265.336-.6.6-1.005.788-.405.188-.82.276-1.245.264-.542-.008-1.001-.148-1.378-.42-.373-.278-.648-.66-.825-1.15-.176-.493-.236-1.047-.18-1.66l.03-.302a4.327 4.327 0 0 1 .547-1.679 3.138 3.138 0 0 1 1.132-1.149 2.795 2.795 0 0 1 1.54-.391c.682.016 1.228.245 1.637.686.409.441.614 1 .614 1.679l-1.017-.006c-.008-.425-.127-.768-.355-1.03-.229-.264-.538-.404-.927-.42a1.744 1.744 0 0 0-1.414.631c-.373.434-.606 1.04-.698 1.818l-.018.156a5.234 5.234 0 0 0-.012.794c.028.47.16.84.397 1.114.237.272.562.415.975.427Zm7.675.782a1.462 1.462 0 0 1-.042-.343l.018-.343c-.598.554-1.232.822-1.902.806-.573-.008-1.041-.188-1.402-.541-.357-.357-.519-.802-.487-1.336.04-.69.341-1.228.902-1.613.566-.389 1.308-.583 2.227-.583l1.137.006.072-.518c.04-.389-.036-.696-.228-.92-.189-.229-.474-.347-.855-.355a1.681 1.681 0 0 0-.993.276c-.285.189-.459.44-.523.753l-1.095.006c.036-.382.184-.719.445-1.011a2.552 2.552 0 0 1 1.005-.686 3.21 3.21 0 0 1 1.269-.235c.678.016 1.206.223 1.583.62.377.393.536.916.475 1.57l-.529 3.226-.03.463c-.008.22.016.44.072.656l-.012.102h-1.107Zm-1.709-.842c.349.008.678-.075.987-.247a2.53 2.53 0 0 0 .806-.728l.235-1.342-.825-.006c-.686 0-1.211.108-1.576.325-.365.217-.572.523-.62.92-.036.306.034.56.211.765.18.2.441.305.782.313Zm5.599.842h-1.083l1.6-9.242h1.089l-1.606 9.242Zm11.763-1.155c-.292.413-.72.732-1.281.956-.558.221-1.196.327-1.914.32-.573-.013-1.075-.147-1.504-.404a2.669 2.669 0 0 1-1.011-1.1 4.101 4.101 0 0 1-.421-1.638c-.028-.477.03-1.123.174-1.937.149-.815.405-1.519.77-2.112.365-.594.821-1.047 1.366-1.36.55-.313 1.178-.463 1.884-.451.814.016 1.462.258 1.943.728.486.465.763 1.12.831 1.967h-1.119c-.045-.553-.211-.979-.5-1.275-.289-.297-.688-.454-1.197-.47-.755-.028-1.386.243-1.896.813-.505.57-.838 1.402-.999 2.497l-.114.842-.018.458c0 .79.162 1.402.487 1.835.325.43.781.648 1.366.656.847.02 1.519-.189 2.016-.626l.361-1.968h-1.974l.169-.938h3.081l-.5 3.207Zm5.599 1.155a1.462 1.462 0 0 1-.042-.343l.018-.343c-.597.554-1.231.822-1.901.806-.574-.008-1.041-.188-1.402-.541-.357-.357-.52-.802-.488-1.336.04-.69.341-1.228.903-1.613.566-.389 1.308-.583 2.226-.583l1.138.006.072-.518c.04-.389-.036-.696-.229-.92-.188-.229-.473-.347-.854-.355a1.681 1.681 0 0 0-.993.276 1.16 1.16 0 0 0-.524.753l-1.095.006c.036-.382.185-.719.445-1.011a2.552 2.552 0 0 1 1.005-.686c.41-.165.833-.243 1.27-.235.678.016 1.205.223 1.583.62.377.393.535.916.475 1.57l-.53 3.226-.03.463c-.008.22.016.44.073.656l-.013.102h-1.107Zm-1.709-.842c.349.008.678-.075.987-.247.313-.177.582-.42.807-.728l.234-1.342-.824-.006c-.686 0-1.212.108-1.577.325-.365.217-.571.523-.619.92-.037.306.034.56.21.765.181.2.441.305.782.313Zm8.47-4.676-.512-.054c-.698 0-1.247.315-1.649.945l-.8 4.627h-1.089l1.131-6.51 1.053-.007-.162.758c.461-.605 1.005-.9 1.63-.884.133 0 .305.03.518.09l-.12 1.035Zm.37 2.25c.08-.661.262-1.259.547-1.792.285-.534.636-.933 1.053-1.198a2.409 2.409 0 0 1 1.378-.379c.726.016 1.284.28 1.673.794l.626-3.4h1.089l-1.601 9.243h-.993l.115-.698c-.514.562-1.148.834-1.902.818-.601-.016-1.081-.25-1.438-.704-.357-.457-.549-1.069-.578-1.835a5.743 5.743 0 0 1 .031-.848Zm1.047.627c-.012.573.09 1.018.306 1.335.217.317.534.48.951.488.63.028 1.19-.29 1.679-.951l.518-3.009c-.241-.593-.678-.898-1.312-.914a1.656 1.656 0 0 0-1.138.39c-.324.27-.573.649-.746 1.138a4.732 4.732 0 0 0-.258 1.523Zm8.379 2.761c-.811-.016-1.445-.314-1.902-.896-.457-.582-.65-1.326-.578-2.233l.031-.258a4.353 4.353 0 0 1 .571-1.77c.317-.533.702-.934 1.155-1.203a2.678 2.678 0 0 1 1.469-.391c.67.016 1.195.239 1.576.668.381.43.59 1.01.626 1.745.012.26.004.522-.024.782l-.066.5h-4.254c-.073.59.024 1.09.288 1.504.269.413.668.628 1.198.644.642.016 1.235-.273 1.781-.867l.626.53a2.886 2.886 0 0 1-1.059.926c-.43.221-.909.327-1.438.32Zm.692-5.842c-.45-.012-.843.14-1.18.457-.333.317-.598.788-.794 1.414l3.165.006.024-.096c.064-.506-.018-.925-.247-1.258-.224-.337-.547-.511-.968-.523Zm5.165-.795-.156.825c.585-.642 1.251-.955 1.998-.939.613.016 1.067.229 1.359.638.293.409.402.985.325 1.727l-.71 4.266h-1.089l.716-4.284c.024-.197.026-.38.006-.548-.068-.561-.399-.848-.993-.86-.653-.012-1.227.337-1.721 1.047l-.806 4.645h-1.089l1.131-6.51 1.029-.007Z" fill="#fff"/><path fill-rule="evenodd" clip-rule="evenodd" d="M24 48c13.255 0 24-10.745 24-24S37.255 0 24 0 0 10.745 0 24c0 6.861 2.88 13.05 7.495 17.424.595-.373 1.185-.75 1.771-1.131.059-.33.13-.728.208-1.181.04-.232.085-.477.137-.733.04-.206.086-.417.134-.637l.02-.092c.197-.904.405-1.919.575-2.983h-.073c-1.894.035-3.632-.477-4.635-1.607a3.516 3.516 0 0 1-.879-1.93c-.102-.826.057-1.799.527-2.924l.073-.209.32.07c1.223.238 2.788.554 3.854 1.937.491.636.877 1.5 1.069 2.695.017-.184.033-.368.047-.552.083-1.083.102-2.164.014-3.181-2.062-.813-3.716-3.225-4.196-5.857-.186-1.019-.203-2.07.009-3.056.323-1.503 1.145-2.854 2.54-3.761l.146-.104.23.194c1.812 1.478 2.721 3.573 2.968 5.84.233 2.157-.142 4.469-.91 6.552l-.12.311c.151.991.209 2.042.2 3.1-.019 2.014-.265 4.047-.575 5.706-.047.259-.099.508-.155.747-.062.26-.13.507-.198.739l-.014.047c4.08-2.733 7.92-5.68 11.373-8.855-.009-.13-.024-.38-.027-.721a6.155 6.155 0 0 1 .014-.541c.015-.173.041-.357.069-.55.017-.125.035-.253.051-.385.06-.48.122-.996.154-1.52a9.655 9.655 0 0 1-3.007-3.297 7.595 7.595 0 0 1-.734-1.853c-.157-.653-.209-1.277-.127-1.826.157-1.053.707-1.853 1.745-2.113.739-.282 1.525-.008 2.21.647.688.658 1.27 1.715 1.579 2.928.433 1.713.303 3.723-.79 5.37.03.257.052.513.068.767.03.423.043.834.034 1.218a7.44 7.44 0 0 1-.046.755c2.24-2.15 4.3-4.403 6.141-6.762.496-.634.902-1.226 1.264-1.836l-.16-.305c-.871-1.613-1.39-3.72-1.365-5.7.013-.89.134-1.755.375-2.532.248-.8.61-1.512 1.104-2.065.772-.868 1.824-1.38 3.186-1.288.866-.018 1.464.495 1.812 1.338.491 1.194.443 3.107-.077 4.978-.64 2.307-2.015 4.512-3.864 5.333a17.279 17.279 0 0 1-1.606 2.584c-.35.47-.707.938-1.072 1.401a14.282 14.282 0 0 1 1.725-.676c.697-1.36 1.924-2.567 3.29-3.352a7.66 7.66 0 0 1 1.926-.792c.673-.169 1.324-.227 1.901-.141 1.072.158 1.905.722 2.192 1.81.3.777.295 1.421.094 1.948-.321.848-1.186 1.408-2.308 1.72-2.173.607-5.322.265-6.88-.37-.067.032-.132.065-.197.098-.681.345-1.29.752-1.832 1.114-.173.116-.339.227-.498.33-.285.184-.55.334-.777.464l-.01.006c-.395.223-.67.363-.77.413-2.543 2.894-5.4 5.634-8.486 8.223.096-.014.196-.027.3-.039.168-.018.345-.035.528-.053.63-.06 1.342-.128 2.069-.297.215-.05.43-.106.646-.168l.084-.182c.99-2.23 2.756-3.487 4.745-4.055a9.761 9.761 0 0 1 2.497-.36c1.3-.02 2.576.197 3.682.5l.303.07-.136.369c-.92 2.655-2.597 3.983-4.407 4.556-2.18.69-4.574.258-6.148-.333-.574.29-1.168.521-1.748.705-.473.151-.932.272-1.364.354a7.24 7.24 0 0 1-.929.134 6.577 6.577 0 0 1-1.447-.111 109.751 109.751 0 0 1-8.23 6.014A23.902 23.902 0 0 0 24 48ZM10.96 27.419c.538-1.664.801-3.44.67-5.13-.158-2.01-.87-3.893-2.354-5.298-1.032.859-1.562 2.02-1.769 3.259a7.883 7.883 0 0 0 .026 2.666c.364 2.069 1.463 4.04 2.978 4.946a8.002 8.002 0 0 0-.52-1.768.203.203 0 0 1 .368-.177c.242.46.441.964.601 1.502Zm11.482-3.27c.138.292.253.613.348.953.488-1.155.53-2.44.3-3.584-.26-1.296-.857-2.421-1.593-2.972-.388-.291-.81-.422-1.232-.288-.578.265-.843.752-.928 1.344-.076.532.026 1.142.231 1.797.163.515.397 1.05.69 1.58.495.902 1.16 1.794 1.968 2.514a5.74 5.74 0 0 0-.179-1.196.213.213 0 0 1 .123-.271c.11-.04.23.015.272.123Zm1.668 10.13c-.208.18-.426.348-.651.504 1.375.447 3.193.71 4.897.234 1.57-.44 3.033-1.514 3.966-3.64a13.9 13.9 0 0 0-3.837-.036c-.897.116-1.789.317-2.614.684-1.072.477-2.034 1.21-2.737 2.313.248-.117.49-.249.724-.396a.21.21 0 0 1 .252.338Zm8.187-10.146c1.509.415 3.632.605 5.223.246 1.447-.329 2.436-1.134 1.905-2.76-.283-.616-.795-.904-1.409-.996-.56-.086-1.203.022-1.879.242a8.542 8.542 0 0 0-1.638.74c-.87.5-1.707 1.16-2.343 1.934.433-.073.87-.116 1.308-.12a.21.21 0 1 1 .035.418c-.408.065-.81.167-1.202.296Zm.699-6.994c-.238.66-.46 1.25-.68 1.797 1.06-.916 1.853-2.392 2.333-3.893.539-1.684.684-3.418.283-4.522-.224-.614-.618-1.022-1.24-1.036a3.142 3.142 0 0 0-2.133 1c-.52.549-.851 1.292-1.064 2.136a9.765 9.765 0 0 0-.27 2.24c-.018 1.637.293 3.377.921 4.792l.063-.025c.388-.794.75-1.668 1.162-2.724a.334.334 0 1 1 .625.235ZM5.894 28.663c-.223.9-.226 1.658-.1 2.3.109.549.33 1.004.656 1.377.743.853 1.973 1.29 3.36 1.389-.027-1.521-.36-2.565-.87-3.294-.803-1.151-2.021-1.518-3.046-1.772Z" fill="#fff"/></svg>