<svg width="263" height="59" fill="none" xmlns="http://www.w3.org/2000/svg"><g id="logo"><g id="Frame 1"><path id="Mist Gardens" d="m78.346 9.648 4.716 12.534 4.706-12.534h3.672V26h-2.83v-5.39l.281-7.21L84.062 26h-2.033l-4.818-12.59.281 7.2V26h-2.83V9.648h3.684ZM100.108 26h-2.83V9.648h2.83V26Zm14.339-4.211c0-.72-.254-1.273-.764-1.663-.501-.389-1.411-.782-2.729-1.179-1.317-.396-2.365-.838-3.144-1.325-1.49-.936-2.235-2.156-2.235-3.661 0-1.318.535-2.403 1.606-3.257 1.078-.853 2.475-1.28 4.189-1.28 1.138 0 2.153.21 3.043.629.891.419 1.591 1.018 2.101 1.797.509.77.763 1.628.763 2.571h-2.83c0-.853-.269-1.52-.808-1.999-.532-.486-1.296-.73-2.291-.73-.929 0-1.651.199-2.168.596-.509.396-.764.95-.764 1.662 0 .599.277 1.1.831 1.505.554.396 1.468.786 2.741 1.168 1.272.374 2.294.804 3.066 1.291.771.48 1.336 1.033 1.695 1.662.36.622.539 1.352.539 2.19 0 1.363-.524 2.448-1.572 3.257-1.04.801-2.456 1.202-4.245 1.202-1.183 0-2.272-.218-3.268-.652-.988-.442-1.759-1.048-2.313-1.82-.547-.77-.82-1.669-.82-2.694h2.841c0 .928.307 1.647.921 2.156.614.509 1.494.764 2.639.764.988 0 1.73-.199 2.224-.596.501-.404.752-.936.752-1.594Zm19.449-9.85h-5.099V26h-2.818V11.94h-5.054V9.648h12.971v2.292Zm24.343 11.938c-.591.772-1.411 1.356-2.459 1.752-1.048.397-2.239.596-3.572.596-1.37 0-2.583-.311-3.638-.933-1.056-.62-1.872-1.508-2.448-2.661-.569-1.16-.865-2.512-.888-4.054v-1.28c0-2.471.592-4.4 1.775-5.784 1.183-1.393 2.834-2.09 4.952-2.09 1.82 0 3.265.45 4.335 1.348 1.071.899 1.715 2.194 1.932 3.886h-2.785c-.315-1.969-1.456-2.953-3.425-2.953-1.273 0-2.243.46-2.909 1.381-.659.913-1 2.257-1.022 4.032v1.258c0 1.766.371 3.14 1.112 4.121.748.973 1.785 1.46 3.111 1.46 1.452 0 2.485-.33 3.099-.988v-3.2h-3.369V17.61h6.199v6.266Zm14.575-1.684h-6.334L165.155 26h-2.954l6.177-16.352h2.549L177.115 26h-2.964l-1.337-3.807Zm-5.536-2.291h4.739l-2.37-6.783-2.369 6.783Zm20.01-.202h-3.167V26h-2.841V9.648h5.75c1.886 0 3.343.424 4.368 1.27 1.026.846 1.539 2.07 1.539 3.672 0 1.093-.266 2.01-.797 2.751-.525.734-1.258 1.3-2.202 1.696l3.673 6.817V26h-3.044l-3.279-6.3Zm-3.167-2.28h2.92c.958 0 1.707-.24 2.246-.719.539-.486.809-1.15.809-1.988 0-.876-.251-1.553-.753-2.032-.494-.48-1.235-.727-2.223-.741h-2.999v5.48ZM197.932 26V9.648h4.829c1.445 0 2.726.322 3.841.966 1.123.644 1.992 1.557 2.606 2.74.614 1.183.921 2.539.921 4.066v.82c0 1.55-.311 2.912-.933 4.088a6.46 6.46 0 0 1-2.639 2.717c-1.138.637-2.444.955-3.919.955h-4.706Zm2.842-14.06V23.73h1.853c1.489 0 2.631-.464 3.425-1.392.801-.936 1.209-2.276 1.224-4.02v-.91c0-1.775-.386-3.13-1.157-4.066-.771-.936-1.89-1.403-3.358-1.403h-1.987Zm24.042 6.76H218.1v5.031h7.85V26h-10.691V9.648h10.612v2.292H218.1v4.514h6.716V18.7Zm18.719 7.3h-2.842l-7.288-11.601V26h-2.842V9.648h2.842l7.311 11.646V9.648h2.819V26Zm14.204-4.211c0-.72-.255-1.273-.764-1.663-.501-.389-1.411-.782-2.729-1.179-1.317-.396-2.366-.838-3.144-1.325-1.49-.936-2.235-2.156-2.235-3.661 0-1.318.535-2.403 1.606-3.257 1.078-.853 2.474-1.28 4.189-1.28 1.138 0 2.152.21 3.043.629.891.419 1.591 1.018 2.1 1.797.509.77.764 1.628.764 2.571h-2.83c0-.853-.27-1.52-.809-1.999-.531-.486-1.295-.73-2.291-.73-.928 0-1.651.199-2.167.596-.509.396-.764.95-.764 1.662 0 .599.277 1.1.831 1.505.554.396 1.468.786 2.74 1.168 1.273.374 2.295.804 3.066 1.291.772.48 1.337 1.033 1.696 1.662.36.622.539 1.352.539 2.19 0 1.363-.524 2.448-1.572 3.257-1.041.801-2.456 1.202-4.245 1.202-1.183 0-2.272-.218-3.268-.652-.988-.442-1.76-1.048-2.314-1.82-.546-.77-.819-1.669-.819-2.694h2.841c0 .928.307 1.647.921 2.156.614.509 1.493.764 2.639.764.988 0 1.729-.199 2.224-.596.501-.404.752-.936.752-1.594Z" fill="#343D33"/><path id="Museum &amp; Botanical Garden" d="m77.021 38.336 1.868 8.687 4.892-8.687h1.81L83.736 49h-1.37l.733-4.219.872-4.292L79.138 49h-1.055l-1.904-8.68-.66 4.6-.71 4.08h-1.377l1.853-10.664h1.736Zm14.161 9.88c-.62.64-1.409.95-2.365.93-.757-.019-1.319-.29-1.685-.813-.361-.522-.496-1.235-.403-2.138l.85-5.12h1.325l-.856 5.142c-.025.215-.03.425-.015.63.024.351.13.627.315.827.185.2.444.308.776.323.947.029 1.68-.354 2.197-1.15l.996-5.772h1.326L92.266 49h-1.252l.168-.784Zm8.126-1.362c.073-.547-.227-.933-.9-1.157l-1.377-.403c-1.163-.4-1.724-1.064-1.685-1.992.034-.699.352-1.27.952-1.714.605-.45 1.316-.67 2.131-.66.801.01 1.45.245 1.949.704.503.454.744 1.047.725 1.78l-1.319-.008c.01-.395-.114-.718-.373-.967-.259-.248-.603-.378-1.033-.388-.459-.01-.854.103-1.186.337-.308.22-.486.508-.535.864-.063.46.217.794.842 1.004l.667.183c.908.234 1.553.54 1.933.916.381.375.557.842.528 1.398-.03.494-.191.923-.484 1.29a2.789 2.789 0 0 1-1.172.842 3.962 3.962 0 0 1-1.56.264c-.84-.01-1.533-.254-2.08-.733-.547-.483-.81-1.104-.79-1.86l1.325.007c0 .444.141.8.425 1.07.283.268.671.402 1.164.402.484.01.901-.09 1.253-.3.351-.215.552-.508.6-.879Zm6.244 2.293c-.986-.02-1.758-.384-2.314-1.092-.557-.708-.791-1.614-.704-2.717l.037-.315a5.303 5.303 0 0 1 .696-2.153c.386-.65.854-1.138 1.406-1.465a3.257 3.257 0 0 1 1.787-.476c.816.02 1.455.29 1.919.813.464.522.718 1.23.762 2.124.015.317.005.635-.029.952l-.081.608h-5.178c-.088.718.029 1.328.351 1.83.328.504.813.765 1.458.785.781.02 1.504-.332 2.168-1.055l.762.644a3.511 3.511 0 0 1-1.289 1.128 3.65 3.65 0 0 1-1.751.389Zm.842-7.112a1.947 1.947 0 0 0-1.435.556c-.405.386-.728.96-.967 1.721l3.853.008.029-.117c.078-.616-.022-1.126-.3-1.531-.274-.41-.667-.623-1.18-.637Zm8.69 6.181c-.62.64-1.408.95-2.365.93-.757-.019-1.319-.29-1.685-.813-.361-.522-.496-1.235-.403-2.138l.85-5.12h1.326l-.857 5.142c-.025.215-.03.425-.015.63.024.351.129.627.315.827.185.2.444.308.776.323.948.029 1.68-.354 2.198-1.15l.996-5.772h1.325L116.168 49h-1.252l.168-.784Zm5.834-7.148-.168.886c.664-.703 1.467-1.045 2.409-1.025.503.01.928.124 1.275.344.351.22.593.53.725.93.742-.869 1.618-1.294 2.629-1.274.791.02 1.375.285 1.751.798.376.513.515 1.201.417 2.066L129.084 49h-1.318l.864-5.222c.03-.254.03-.486 0-.696-.092-.664-.527-1.003-1.303-1.018a2.008 2.008 0 0 0-1.319.454c-.39.308-.642.713-.754 1.216L124.353 49h-1.333l.879-5.215c.063-.542-.02-.96-.249-1.252-.225-.293-.576-.445-1.055-.454-.825-.02-1.482.356-1.97 1.127L119.622 49h-1.326l1.377-7.925 1.245-.007Zm14.487 5.12c.073-.909.615-1.72 1.626-2.432l.835-.557-.315-.564c-.352-.644-.508-1.242-.469-1.794.059-.806.352-1.453.879-1.941.527-.493 1.192-.73 1.992-.71.659.01 1.204.224 1.634.644.429.415.625.933.586 1.553-.044.84-.564 1.609-1.561 2.307l-1.076.718 1.824 2.79c.444-.659.722-1.367.835-2.124h1.179c-.132 1.245-.574 2.288-1.326 3.128l1.15 1.794h-1.48l-.534-.828c-.85.664-1.785.987-2.805.967-.923-.01-1.665-.288-2.227-.835-.561-.552-.81-1.257-.747-2.117Zm3.018 1.852c.654.015 1.347-.26 2.08-.827l-1.985-3.106-.315.22c-.874.606-1.358 1.228-1.45 1.868-.074.527.044.964.351 1.31.308.347.747.526 1.319.535Zm-.037-7.25c-.039.41.081.861.359 1.355l.198.344 1.12-.755c.523-.39.811-.842.864-1.355.03-.312-.056-.57-.256-.776-.2-.205-.466-.308-.798-.308-.406 0-.745.15-1.018.447-.274.293-.43.642-.469 1.048ZM148.42 49l1.853-10.664 3.127.007c1.089 0 1.905.244 2.447.733.542.488.778 1.17.71 2.043-.088 1.02-.73 1.79-1.926 2.307.478.186.835.503 1.069.952.239.45.337.945.293 1.487-.073.962-.459 1.726-1.157 2.293-.698.561-1.602.842-2.71.842h-3.706Zm2.241-4.988-.666 3.838 2.175.007c.664 0 1.221-.178 1.67-.534.449-.357.71-.838.783-1.443.069-.576-.031-1.026-.3-1.348-.268-.322-.691-.493-1.267-.512l-2.395-.008Zm.198-1.128 1.985.008c.62 0 1.142-.16 1.567-.477.43-.317.681-.754.754-1.31.064-.518-.039-.909-.307-1.172-.264-.264-.703-.408-1.319-.432l-2.094-.008-.586 3.391Zm11.048-1.955c.664.01 1.233.19 1.707.542.473.351.823.837 1.047 1.457.23.616.308 1.29.235 2.022l-.015.16a5.352 5.352 0 0 1-.689 2.096 4.04 4.04 0 0 1-1.421 1.45 3.464 3.464 0 0 1-1.911.49c-.659-.01-1.228-.19-1.707-.541-.473-.352-.82-.83-1.04-1.436-.219-.605-.298-1.272-.234-2 .073-.82.295-1.557.666-2.211.372-.655.848-1.16 1.429-1.517a3.423 3.423 0 0 1 1.933-.512Zm-2.695 4.248a4.523 4.523 0 0 0 0 .96c.049.575.22 1.034.513 1.376.297.342.693.52 1.186.535.44.014.845-.093 1.216-.322.371-.235.684-.586.937-1.055a4.42 4.42 0 0 0 .491-1.56c.039-.45.047-.828.022-1.135-.058-.591-.237-1.057-.535-1.4-.297-.341-.693-.522-1.186-.541-.684-.015-1.265.254-1.743.805-.479.552-.774 1.275-.886 2.168l-.015.169Zm10.323-6.02-.337 1.918h1.443l-.183 1.048h-1.435l-.828 4.929a1.676 1.676 0 0 0-.007.351c.034.381.241.572.622.572.161 0 .376-.025.645-.074l-.103 1.106a3.6 3.6 0 0 1-.967.132c-.527-.01-.922-.203-1.186-.579-.264-.38-.366-.89-.308-1.53l.806-4.907h-1.399l.183-1.048h1.399l.337-1.919h1.318ZM175.867 49a1.784 1.784 0 0 1-.051-.417l.022-.418c-.728.674-1.499 1.001-2.315.982-.698-.01-1.267-.23-1.706-.66-.435-.434-.633-.976-.594-1.626.049-.84.415-1.494 1.099-1.963.688-.473 1.592-.71 2.71-.71l1.384.007.088-.63c.049-.473-.044-.847-.278-1.12-.23-.279-.576-.422-1.04-.432a2.048 2.048 0 0 0-1.209.337c-.346.23-.559.534-.637.915l-1.333.008a2.11 2.11 0 0 1 .542-1.231c.317-.361.725-.64 1.223-.835a3.91 3.91 0 0 1 1.546-.286c.825.02 1.467.271 1.926.755.459.478.652 1.115.578 1.911l-.644 3.926-.037.564c-.009.269.02.535.088.799l-.014.124h-1.348Zm-2.08-1.025c.425.01.825-.09 1.201-.3a3.07 3.07 0 0 0 .981-.887l.286-1.633-1.003-.008c-.835 0-1.475.132-1.919.396-.445.264-.696.637-.755 1.12-.044.372.042.682.257.93.219.245.537.372.952.382Zm8.009-6.907-.191 1.003c.713-.781 1.524-1.162 2.432-1.142.747.02 1.299.278 1.655.776.357.498.488 1.199.396 2.102L185.223 49h-1.325l.871-5.215c.03-.24.032-.461.008-.666-.083-.684-.486-1.033-1.209-1.048-.796-.014-1.494.41-2.095 1.275L180.492 49h-1.326l1.377-7.925 1.253-.007ZM188.852 49h-1.318l1.377-7.925h1.318L188.852 49Zm1.092-10.818c.224-.01.41.059.556.205.152.142.227.33.227.564a.787.787 0 0 1-.783.798.729.729 0 0 1-.564-.197.715.715 0 0 1-.213-.557.834.834 0 0 1 .22-.571.776.776 0 0 1 .557-.242Zm4.574 9.866c.473.01.9-.127 1.281-.41.381-.288.63-.664.747-1.128l1.253-.008a2.808 2.808 0 0 1-.601 1.363c-.322.41-.73.73-1.223.96-.493.229-.998.336-1.516.322-.659-.01-1.218-.181-1.677-.513-.454-.337-.789-.803-1.004-1.4-.215-.6-.288-1.274-.219-2.02l.036-.367a5.252 5.252 0 0 1 .667-2.043c.351-.6.81-1.067 1.377-1.4a3.401 3.401 0 0 1 1.875-.475c.83.02 1.494.298 1.992.835.498.537.747 1.218.747 2.043l-1.238-.007c-.01-.518-.154-.935-.432-1.253-.278-.322-.654-.493-1.128-.512-.688-.015-1.262.241-1.721.769-.454.527-.737 1.264-.85 2.212l-.022.19a6.332 6.332 0 0 0-.014.967c.034.571.195 1.023.483 1.355.288.332.684.505 1.187.52Zm9.341.952a1.784 1.784 0 0 1-.051-.417l.022-.418c-.727.674-1.499 1.001-2.314.982-.699-.01-1.267-.23-1.707-.66-.434-.434-.632-.976-.593-1.626.049-.84.415-1.494 1.099-1.963.688-.473 1.591-.71 2.71-.71l1.384.007.088-.63c.049-.473-.044-.847-.279-1.12-.229-.279-.576-.422-1.04-.432a2.043 2.043 0 0 0-1.208.337c-.347.23-.559.534-.637.915l-1.333.008c.044-.464.224-.875.542-1.231.317-.361.725-.64 1.223-.835a3.909 3.909 0 0 1 1.545-.286c.825.02 1.467.271 1.926.755.459.478.652 1.115.579 1.911l-.644 3.926-.037.564c-.01.269.019.535.088.799l-.015.124h-1.348Zm-2.08-1.025c.425.01.826-.09 1.202-.3.38-.215.708-.51.981-.887l.286-1.633-1.004-.008c-.835 0-1.474.132-1.919.396-.444.264-.696.637-.754 1.12-.044.372.041.682.256.93.22.245.537.372.952.382ZM208.594 49h-1.318l1.948-11.25h1.326L208.594 49Zm14.319-1.406c-.356.503-.876.89-1.56 1.164-.679.269-1.455.398-2.329.389-.698-.015-1.309-.179-1.831-.491a3.242 3.242 0 0 1-1.231-1.34c-.298-.587-.468-1.25-.512-1.993-.035-.58.036-1.367.212-2.358.181-.991.493-1.848.938-2.571.444-.723.998-1.274 1.662-1.655.669-.381 1.433-.564 2.293-.55.991.02 1.779.315 2.365.887.591.566.928 1.364 1.011 2.395h-1.362c-.054-.674-.257-1.192-.608-1.553-.352-.361-.838-.552-1.458-.571-.918-.035-1.687.295-2.307.988-.615.694-1.02 1.707-1.216 3.04l-.139 1.025-.022.557c0 .962.198 1.707.594 2.234.395.522.949.788 1.662.798 1.03.025 1.848-.23 2.454-.761l.439-2.395h-2.402l.205-1.143h3.75l-.608 3.904ZM229.728 49a1.784 1.784 0 0 1-.051-.417l.022-.418c-.728.674-1.499 1.001-2.315.982-.698-.01-1.267-.23-1.706-.66-.435-.434-.633-.976-.594-1.626.049-.84.416-1.494 1.099-1.963.689-.473 1.592-.71 2.71-.71l1.384.007.088-.63c.049-.473-.044-.847-.278-1.12-.23-.279-.576-.422-1.04-.432a2.048 2.048 0 0 0-1.209.337c-.346.23-.559.534-.637.915l-1.333.008a2.11 2.11 0 0 1 .542-1.231c.318-.361.725-.64 1.223-.835a3.91 3.91 0 0 1 1.546-.286c.825.02 1.467.271 1.926.755.459.478.652 1.115.579 1.911l-.645 3.926-.037.564c-.009.269.02.535.088.799l-.014.124h-1.348Zm-2.08-1.025c.425.01.825-.09 1.201-.3.381-.215.708-.51.982-.887l.285-1.633-1.003-.008c-.835 0-1.475.132-1.919.396-.444.264-.696.637-.755 1.12-.043.372.042.682.257.93.22.245.537.372.952.382Zm10.309-5.691-.623-.066c-.85 0-1.518.383-2.007 1.15L234.353 49h-1.326l1.377-7.925 1.282-.007-.198.923c.562-.738 1.224-1.096 1.985-1.077.161 0 .371.037.63.11l-.146 1.26Zm.45 2.739c.098-.806.32-1.533.666-2.183.347-.65.774-1.135 1.282-1.457a2.93 2.93 0 0 1 1.677-.462c.884.02 1.563.342 2.037.967l.761-4.138h1.326L244.208 49h-1.209l.139-.85c-.625.684-1.396 1.016-2.314.997-.732-.02-1.316-.306-1.751-.857-.434-.557-.669-1.302-.703-2.234a7.233 7.233 0 0 1 .037-1.033Zm1.274.762c-.014.698.11 1.24.374 1.626.264.385.649.583 1.157.593.767.034 1.448-.352 2.044-1.157l.629-3.662c-.293-.723-.825-1.094-1.596-1.114a2.014 2.014 0 0 0-1.385.476c-.395.328-.698.789-.908 1.385a5.75 5.75 0 0 0-.315 1.853Zm10.199 3.362c-.986-.02-1.758-.384-2.314-1.092-.557-.708-.791-1.614-.703-2.717l.036-.315a5.303 5.303 0 0 1 .696-2.153c.386-.65.855-1.138 1.406-1.465a3.257 3.257 0 0 1 1.787-.476c.816.02 1.455.29 1.919.813.464.522.718 1.23.762 2.124.015.317.005.635-.029.952l-.081.608h-5.178c-.088.718.029 1.328.352 1.83.327.504.813.765 1.457.785.781.02 1.504-.332 2.168-1.055l.762.644a3.511 3.511 0 0 1-1.289 1.128 3.65 3.65 0 0 1-1.751.389Zm.842-7.112a1.948 1.948 0 0 0-1.435.556c-.405.386-.728.96-.967 1.721l3.853.008.029-.117c.078-.616-.022-1.126-.3-1.531-.274-.41-.667-.623-1.18-.637Zm6.288-.967-.19 1.003c.713-.781 1.523-1.162 2.431-1.142.747.02 1.299.278 1.656.776.356.498.488 1.199.395 2.102L260.438 49h-1.326l.872-5.215c.029-.24.032-.461.007-.666-.083-.684-.486-1.033-1.208-1.048-.796-.014-1.495.41-2.095 1.275L255.706 49h-1.325l1.377-7.925 1.252-.007Z" fill="#333"/></g><path id="Subtract" fill-rule="evenodd" clip-rule="evenodd" d="M29.5 59C45.792 59 59 45.792 59 29.5S45.792 0 29.5 0 0 13.208 0 29.5c0 8.433 3.539 16.04 9.212 21.416.73-.457 1.456-.92 2.176-1.389l.255-1.452a38.4 38.4 0 0 1 .168-.9c.05-.253.106-.514.165-.784l.025-.113a65.2 65.2 0 0 0 .706-3.667h-.088c-2.329.043-4.464-.586-5.698-1.974a4.321 4.321 0 0 1-1.08-2.374c-.125-1.014.07-2.21.648-3.593l.09-.257.393.086c1.503.292 3.427.681 4.737 2.381.603.781 1.077 1.843 1.313 3.31.022-.225.041-.45.059-.676.1-1.332.125-2.66.016-3.91-2.534-1-4.567-3.964-5.158-7.2-.228-1.251-.249-2.545.012-3.756.396-1.847 1.407-3.507 3.122-4.623l.18-.127.282.238c2.227 1.817 3.345 4.393 3.648 7.18.286 2.65-.174 5.491-1.117 8.052l-.148.382c.185 1.218.256 2.51.244 3.81-.022 2.477-.325 4.976-.705 7.014a18.32 18.32 0 0 1-.191.919c-.077.32-.16.623-.243.908l-.018.058c5.016-3.36 9.735-6.982 13.98-10.885-.011-.158-.03-.466-.033-.886a7.54 7.54 0 0 1 .017-.665c.018-.213.05-.44.084-.677v-.003a30.567 30.567 0 0 0 .253-2.337 11.867 11.867 0 0 1-3.697-4.052 9.335 9.335 0 0 1-.902-2.278c-.193-.803-.257-1.57-.155-2.244.192-1.296.868-2.278 2.145-2.598.907-.347 1.873-.01 2.715.795.846.809 1.561 2.108 1.941 3.6.533 2.104.372 4.576-.971 6.6.036.315.064.63.084.942.036.52.053 1.026.041 1.498a9.13 9.13 0 0 1-.056.928c2.753-2.644 5.286-5.413 7.549-8.312a21.012 21.012 0 0 0 1.552-2.255l-.198-.377c-1.07-1.982-1.709-4.572-1.677-7.006.015-1.095.165-2.158.46-3.112.306-.983.75-1.859 1.357-2.538.95-1.067 2.243-1.698 3.916-1.584 1.065-.022 1.8.608 2.227 1.645.605 1.468.545 3.819-.093 6.119-.788 2.834-2.477 5.543-4.748 6.554a21.242 21.242 0 0 1-1.975 3.177 72.17 72.17 0 0 1-1.317 1.721c.252-.117.513-.23.782-.341.43-.177.877-.342 1.338-.489.857-1.672 2.365-3.155 4.045-4.12a9.407 9.407 0 0 1 2.366-.973c.827-.208 1.628-.279 2.338-.174 1.317.195 2.341.887 2.693 2.225.369.955.363 1.747.116 2.394-.395 1.043-1.458 1.732-2.837 2.115-2.671.745-6.542.326-8.457-.455h-.001l-.242.12c-.837.424-1.586.925-2.25 1.37h-.001c-.213.142-.417.278-.613.405-.35.226-.675.411-.954.57l-.014.008c-.482.273-.82.445-.944.506-3.126 3.558-6.636 6.926-10.431 10.108.117-.016.24-.032.368-.046.206-.023.423-.044.649-.066.774-.074 1.65-.158 2.542-.365.265-.062.53-.13.796-.207l.103-.223c1.216-2.742 3.387-4.287 5.832-4.985a11.992 11.992 0 0 1 3.07-.443c1.598-.025 3.166.243 4.525.616l.373.086-.167.453c-1.132 3.264-3.193 4.896-5.417 5.6-2.68.847-5.623.317-7.557-.41-.706.358-1.437.642-2.15.868-.582.185-1.145.333-1.677.434-.406.079-.79.144-1.141.165a8.106 8.106 0 0 1-1.778-.136 134.927 134.927 0 0 1-10.114 7.392A29.38 29.38 0 0 0 29.5 59ZM13.47 33.701c.661-2.044.984-4.228.822-6.303-.193-2.47-1.069-4.786-2.892-6.514-1.269 1.056-1.92 2.484-2.175 4.006a9.69 9.69 0 0 0 .032 3.277c.448 2.544 1.799 4.966 3.661 6.08a9.833 9.833 0 0 0-.638-2.173.25.25 0 0 1 .45-.217c.299.564.543 1.184.74 1.844Zm14.113-4.018c.17.36.311.754.428 1.171.6-1.42.651-3 .369-4.405-.32-1.593-1.054-2.976-1.958-3.653-.477-.358-.995-.519-1.514-.354-.711.326-1.037.924-1.142 1.653-.093.653.032 1.403.285 2.208.2.633.488 1.29.848 1.943.608 1.108 1.426 2.204 2.418 3.09a7.05 7.05 0 0 0-.219-1.471.261.261 0 0 1 .152-.333.26.26 0 0 1 .333.151Zm2.049 12.453a9.155 9.155 0 0 1-.8.617c1.691.55 3.926.873 6.02.289 1.93-.541 3.729-1.86 4.876-4.476a17.088 17.088 0 0 0-4.717-.043c-1.102.143-2.2.39-3.214.84-1.317.587-2.499 1.488-3.364 2.843a8.18 8.18 0 0 0 .89-.486.26.26 0 0 1 .309.416Zm10.064-12.472c1.854.51 4.465.744 6.42.302 1.778-.404 2.995-1.394 2.342-3.392-.348-.758-.977-1.111-1.732-1.225-.688-.105-1.478.028-2.31.297-.664.213-1.345.524-2.013.91-1.07.616-2.098 1.425-2.88 2.377.532-.089 1.07-.142 1.607-.148a.258.258 0 1 1 .043.515c-.5.08-.995.205-1.477.364Zm.86-8.598a61.32 61.32 0 0 1-.836 2.206c1.301-1.125 2.276-2.938 2.866-4.781.662-2.07.84-4.202.348-5.56-.276-.754-.76-1.255-1.524-1.272-1.127.08-1.973.545-2.622 1.23-.638.673-1.047 1.587-1.309 2.624-.215.853-.318 1.787-.33 2.753-.023 2.012.359 4.152 1.132 5.89l.04-.015.04-.016c.475-.976.92-2.05 1.427-3.347a.41.41 0 1 1 .767.288ZM7.242 35.231c-.273 1.106-.277 2.038-.122 2.828.133.674.405 1.234.805 1.692.914 1.048 2.426 1.586 4.131 1.707-.034-1.87-.442-3.152-1.069-4.048-.988-1.415-2.485-1.866-3.745-2.179Z" fill="#343D33"/></g></svg>